<?xml version="1.0" encoding="utf-8"?>
<!-- Generator: Adobe Illustrator 26.0.3, SVG Export Plug-In . SVG Version: 6.00 Build 0)  -->
<svg version="1.1" id="Layer_1" xmlns="http://www.w3.org/2000/svg" xmlns:xlink="http://www.w3.org/1999/xlink" x="0px" y="0px"
	 viewBox="0 0 175 175" style="enable-background:new 0 0 175 175;" xml:space="preserve">
<style type="text/css">
	.st0{fill:#52476E;}
	.st1{fill:#C98453;}
	.st2{fill:#EABC40;}
	.st3{fill:#E8C16C;}
	.st4{fill:#CB8652;}
</style>
<g>
	<g>
		<path class="st0" d="M-2.32,145.05c1.19-0.9,2.39-1.77,3.55-2.69c13.83-10.96,27.65-21.93,41.48-32.89c0.1-0.08,0.2-0.14,0.3-0.21
			c0.32,0.16,0.63,0.37,0.97,0.47c0.99,0.28,1.99,0.5,2.98,0.78c2.67,0.75,5.34,1.53,8.02,2.26c3.14,0.85,6.31,1.61,9.45,2.47
			c3.31,0.91,6.59,1.89,9.89,2.84c0.82,0.13,1.63,0.38,2.45,0.39c6.46,0.08,12.92,0.15,19.37,0.17c3.01,0.01,6.02-0.1,9.04-0.16
			c0.27-0.01,0.55-0.02,0.82-0.02c1.83-0.24,3.67-0.45,5.5-0.71c3.64-0.51,7.27-1.05,10.9-1.57c4.06-0.58,8.11-1.15,12.17-1.73
			c2.37-0.34,4.73-0.69,7.1-1.04c0.3,0.14,0.61,0.28,0.91,0.43c11,5.54,22,11.09,33,16.63c0.59,0.3,1.18,0.61,1.79,0.92
			c-0.15,0.29-0.25,0.51-0.36,0.72c-3.41,6.43-8.05,11.85-13.65,16.46c-7.4,6.08-15.79,10.34-24.76,13.54
			c-14.56,5.19-29.67,7.4-45.04,8.04c-7.18,0.3-14.35,0.15-21.52-0.32c-8.99-0.59-17.92-1.74-26.75-3.53
			c-10-2.03-19.79-4.77-29.14-8.93c-6.81-3.04-13.24-6.67-18.47-12.13C-2.32,145.17-2.32,145.11-2.32,145.05z"/>
		<path class="st0" d="M137.54,4.84c1.64,0.39,3.3,0.73,4.93,1.18c4.79,1.32,9.56,2.68,14.34,4.02c0.64,0.18,1.3,0.31,2.08,0.5
			c-1.9,1.68-3.7,3.27-5.51,4.85c-11.81,10.37-23.63,20.74-35.45,31.1c-0.44,0.38-0.59,0.7-0.42,1.32
			c2.67,9.91,5.21,19.86,7.99,29.74c0.95,3.39,2.47,6.61,3.72,9.92c0.76,2.02,1.5,4.05,2.25,6.07c-3.2,0.12-6.4,0.26-9.59,0.36
			c-2.74,0.09-5.49,0.14-8.23,0.22c-0.91,0.03-1.84,0.01-2.71,0.21c-1.71,0.4-3.4,0.93-5.09,1.41c-0.02-0.06-0.04-0.11-0.06-0.17
			c0.14-0.39,0.28-0.78,0.42-1.15c-10.44-0.87-20.8-0.52-31.17-0.48c-1.62-0.19-3.24-0.38-4.86-0.58c-1.21-0.15-2.42-0.28-3.62-0.47
			c-2.3-0.37-4.6-0.8-6.9-1.18c-1.35-0.22-2.7-0.41-4.05-0.61c-0.1-1.39,0.17-2.68,0.73-3.99c11.4-26.54,22.76-53.1,34.13-79.65
			c0.11-0.25,0.23-0.49,0.37-0.79c1.94,1.05,3.84,2.12,5.79,3.1c4.45,2.25,9.05,4.09,14.03,4.82c6.2,0.91,11.91-0.34,17.06-3.87
			c1.85-1.27,3.55-2.79,5.24-4.28c0.78-0.69,1.51-1.38,2.56-1.61C136.2,4.84,136.87,4.84,137.54,4.84z"/>
		<path class="st1" d="M55.61,91.1c1.35,0.2,2.71,0.39,4.05,0.61c2.3,0.38,4.6,0.81,6.9,1.18c1.2,0.19,2.41,0.32,3.62,0.47
			c1.62,0.2,3.24,0.39,4.86,0.58c0.05,1.09,0.15,2.18,0.15,3.27c0,0.88-0.11,1.76-0.15,2.64c-0.13,2.7-0.25,5.41-0.36,8.11
			c-0.13,3.37-0.24,6.75-0.36,10.12c-3.29-0.95-6.58-1.94-9.89-2.84c-3.14-0.86-6.31-1.62-9.45-2.47c-2.68-0.72-5.34-1.51-8.02-2.26
			c-0.99-0.28-2-0.49-2.98-0.78c-0.34-0.1-0.65-0.31-0.97-0.47c1.7-2.44,3.4-4.88,5.09-7.33c2.4-3.5,4.79-7.02,7.19-10.53
			C55.37,91.28,55.5,91.2,55.61,91.1z"/>
		<path class="st1" d="M105.85,95.74c1.7-0.48,3.38-1.02,5.09-1.41c0.87-0.2,1.81-0.18,2.71-0.21c2.74-0.09,5.49-0.13,8.23-0.22
			c3.2-0.1,6.4-0.24,9.59-0.36c2.08,4.01,4.17,8.01,6.23,12.02c1.34,2.6,2.65,5.22,3.97,7.83c-2.37,0.35-4.73,0.7-7.1,1.04
			c-4.06,0.58-8.11,1.15-12.17,1.73c-3.63,0.52-7.27,1.06-10.9,1.57c-1.83,0.26-3.67,0.48-5.5,0.71
			c-0.06-5.61-0.12-11.23-0.18-16.84C105.83,99.65,105.84,97.7,105.85,95.74z"/>
		<path class="st2" d="M105.82,101.61c0.06,5.61,0.12,11.23,0.18,16.84c-0.27,0.01-0.55,0.02-0.82,0.02
			c-3.01,0.06-6.02,0.16-9.04,0.16c-6.46-0.02-12.92-0.08-19.37-0.17c-0.82-0.01-1.63-0.25-2.45-0.39
			c0.12-3.37,0.23-6.75,0.36-10.12c0.11-2.7,0.23-5.41,0.36-8.11c0.04-0.88,0.16-1.76,0.15-2.64c0-1.09-0.1-2.18-0.15-3.27
			c10.36-0.03,20.73-0.39,31.17,0.48c-0.14,0.38-0.28,0.76-0.42,1.15c-0.05,1.6-0.11,3.2-0.13,4.81
			C105.65,100.79,105.76,101.2,105.82,101.61z M81.6,98.63c0,1.62,0.09,3.02-0.03,4.41c-0.13,1.47-0.12,2.7,1.25,3.75
			c3.33,2.55,6.83,4.76,10.75,6.3c0.96,0.38,1.66,0.18,2.28-0.52c1.08-1.2,2.13-2.42,3.19-3.63c0.45-0.52,0.89-1.03,1.37-1.59
			c-0.21-0.17-0.31-0.27-0.44-0.35c-3.36-2.25-6.77-4.43-10.06-6.78C87.39,98.4,84.51,99.08,81.6,98.63z"/>
		<path class="st3" d="M105.82,101.61c-0.06-0.41-0.17-0.82-0.16-1.23c0.02-1.6,0.08-3.2,0.13-4.81c0.02,0.06,0.04,0.11,0.06,0.17
			C105.84,97.7,105.83,99.65,105.82,101.61z"/>
		<path class="st4" d="M81.6,98.63c2.91,0.45,5.79-0.23,8.33,1.6c3.28,2.36,6.7,4.53,10.06,6.78c0.12,0.08,0.23,0.18,0.44,0.35
			c-0.48,0.55-0.92,1.07-1.37,1.59c-1.06,1.21-2.11,2.43-3.19,3.63c-0.63,0.7-1.33,0.9-2.28,0.52c-3.92-1.54-7.42-3.75-10.75-6.3
			c-1.37-1.05-1.38-2.28-1.25-3.75C81.7,101.66,81.6,100.25,81.6,98.63z"/>
	</g>
</g>
</svg>
